<svg fill="none" xmlns="http://www.w3.org/2000/svg">
  <style> :root svg:not(:target) { display: none } </style>
  <svg id="mobile" viewBox="0 0 210 60">
    <use href="#head-mobile"></use>
    <use href="#logo-mobile"></use>
  </svg>
  <svg id="tablet" viewBox="0 0 210 60">
    <use href="#sun-big"></use>
    <use href="#head"></use>
    <use href="#big"></use>
    <use href="#logo"></use>
  </svg>
  <svg id="desktop" viewBox="0 0 210 60">
    <use href="#sun-big"></use>
    <use href="#head"></use>
    <use href="#big"></use>
    <use href="#squirt"></use>
    <use href="#logo"></use>
  </svg>
  <svg id="footer-logo-mobile" viewBox="0 0 210 60">
    <use href="#logo-mobile"></use>
  </svg>
  <svg id="footer-logo-tablet" viewBox="0 0 143 27">
  <path d="M1.79 24.44A10.15 10.15 0 0 1 0 18.19V8.92c-.15-2.24.44-4.48 1.68-6.36C2.9 1.11 4.8.44 7.6.44s4.58.67 5.7 1.9a8 8 0 0 1 1.67 5.47v2.23H9.5V7.47a5.49 5.49 0 0 0-.34-2.23 1.6 1.6 0 0 0-1.56-.9c-.78 0-1.34.23-1.57.79a7.2 7.2 0 0 0-.33 2.45v11.95c-.06.8.1 1.61.45 2.34.22.56.78.78 1.56.78s1.23-.22 1.45-.78c.26-.75.37-1.55.34-2.34v-2.68h5.47v2.23c.12 2-.48 3.98-1.67 5.58-1.12 1.34-3.02 2.01-5.7 2.01-2.68-.11-4.7-.78-5.81-2.23ZM21.57.78h6.36l4.7 25.44h-5.14l-.9-5.35h-3.68l-.9 5.35h-5.25L21.56.78Zm4.58 16.74L24.8 7.58l-1.35 9.94h2.69ZM36.54 5.02h-3.8V.78h13.3V4.9h-3.8v21.31h-5.7V5.02ZM56.2.78h9.84v2.68h-6.37v8.37h5.14v2.56h-5.14v9.38h6.37v2.57h-9.95V.78h.11ZM68.94.78h2.46l7.26 16.85V.78h2.9v25.44h-2.23l-7.37-17.4v17.4h-3.02V.78ZM84.92.78h9.83v2.68h-6.37v8.37h5.14v2.56h-5.14v9.38h6.37v2.57h-9.83V.78ZM97.66.78h5.14a8.95 8.95 0 0 1 5.7 1.56c1.23 1 1.78 2.79 1.78 5.13 0 3.24-1 5.25-3.12 5.92l3.57 12.72h-3.46l-3.35-11.94h-2.8v11.94h-3.57V.78h.1Zm4.92 10.93c1.15.1 2.3-.22 3.23-.89.68-.56 1.01-1.67 1.01-3.35a7.2 7.2 0 0 0-.33-2.45 2.84 2.84 0 0 0-1.23-1.34 5.1 5.1 0 0 0-2.46-.45h-1.57v8.37h1.34v.11ZM114.75 24.33a11.28 11.28 0 0 1-1.56-6.48V9.37c-.03-1.62.16-3.23.56-4.8a5.67 5.67 0 0 1 2.12-2.9 7.3 7.3 0 0 1 4.14-1c2.34 0 4.02.55 5.02 1.78a8.54 8.54 0 0 1 1.57 5.58v.9h-3.35v-.79c0-.93-.07-1.87-.23-2.79-.1-.58-.41-1.1-.9-1.45a3.45 3.45 0 0 0-2.11-.56c-.8-.05-1.6.19-2.24.67a2.52 2.52 0 0 0-.9 1.79c-.14 1-.22 2-.22 3.01v9.49c-.08 1.45.15 2.9.67 4.24.45.9 1.35 1.23 2.69 1.23a2.7 2.7 0 0 0 2.68-1.34c.59-1.41.86-2.94.78-4.47v-1.78h-3.24V13.6h6.48v12.61h-2.23l-.34-2.9a4.55 4.55 0 0 1-4.58 3.24 5.6 5.6 0 0 1-4.8-2.23ZM133.86 17.3 128.4.88h3.35l3.9 12.28 3.8-12.28h3.36l-5.48 16.4v8.93h-3.35V17.3h-.1Z" fill="#111"/>
  </svg>
  <svg fill="none" viewBox="0 0 27 34">
    <path id="academy-logo" d="M13.64.02 13.5 0 0 1.4v24.61L13.5 34 27 26.01V1.41L13.64 0Zm11.6 25L13.5 31.96 1.77 25.02v-10.1l11.68 6.93.02 1.25-8.02-4.75v1.23l8.04 4.8.02 1.3-8.05-4.76v1.22l8.04 4.81 8.12-4.83V16.9l3.62-2.15v10.26Zm0-11.57L22 15.33l-1.48.88-7.06-4.19-.01 1.23 6.04 3.57-.06.03-.13.07-.86.5-4.98-2.95-.01 1.22 3.93 2.33-.93.61-.02.01-2.97-1.74-.01 1.23 1.94 1.13-1.98 1.19L1.8 13.58l11.63-6.96 11.8 6.83Zm0-1.22L13.43 5.3 1.77 12.22V2.99L13.5 1.76 25.23 3v9.24Z" fill="#666"/>
  </svg>

  <svg id="1"  viewBox="0 0 210 60">
    <path id="sun-big" d="M59.88 24a25.61 25.61 0 1 0-27.37 35.2c-.58-2.09-1.17-4.4-1.69-6.85 1.51.98 3.1 1.83 4.76 2.55 0 0 .12 2.16.28 4.57 1.79.03 3.57-.13 5.33-.47-.05-.25-.05-.5 0-.76.29-1.87 1.09-5.24 1.25-7.41a15.22 15.22 0 0 0 2.9-3.71l-.06.44c-.55 4.26-1.7 8.81-2.4 10.07-.23.42-.5.8-.83 1.15A25.64 25.64 0 0 0 59.88 24Zm-1.47 3.79c-.44.43-1.35.72-1.5-.58-.15-1.3-.19-2.21-.19-2.21s-1.93-3.43-2.65-3.47c-.72-.04-5.83 3.47-7.18 5-1.17 1.29-1.4 1.2-1.4 3.47 0 1.71.22 8.17.1 13.11l-8.15 2.17a64 64 0 0 1-7.8 1.72l-1-5.83h-.14L25.93 28s-3.81-1.44-5.21-1.83a3.76 3.76 0 0 0-4 .63 5.07 5.07 0 0 0-1.73 3.85c.21.46.37.95.48 1.45.05.48-1.2.43-2 .43s-.92-1.44-.29-3.13c.5-1.3 1.1-2.55 1.82-3.74a11.87 11.87 0 0 1 2.07-2.89s.14-.34 1.25-.24c1.11.1 7.28.43 7.28.43l.05-2.27c6.7-.93 13.47-1.37 20.24-1.34v1.83a22.52 22.52 0 0 1 8.14-2 .9.9 0 0 1 .77.39c.34.43 2.41 3 2.65 3.37a28 28 0 0 1 1.83 3 6.24 6.24 0 0 1-.87 1.84v.01Z" fill="#FDC305"/>
    <path id="sun-small" d="M26.01 23.19v-2.25c6.62-.92 13.3-1.36 19.98-1.33 0 .6 0 1.2-.06 1.81 1.9-.84 3.9-1.45 5.94-1.8a16.57 16.57 0 0 0-6.77-8.17 16.44 16.44 0 0 0-19.92 2.04 16.62 16.62 0 0 0-5 9.37l5.83.33ZM46.98 26.68c-1.15 1.27-1.38 1.2-1.38 3.43v9.14a16.53 16.53 0 0 0 7.08-16.88 32.8 32.8 0 0 0-5.7 4.31ZM26.3 28.16s-3.75-1.43-5.14-1.82a8.42 8.42 0 0 0-1.16-.28A16.64 16.64 0 0 0 28.6 40l-2.3-11.84Z" fill="#FDC305"/>
    <g id="head">
      <path d="M45.93 19.35a90.44 90.44 0 0 0-1.4-16.53s-.15-1.3-.87-.24c-.6 1.27-1 2.62-1.2 4a70.88 70.88 0 0 0-12.82.34c-.82-2.75-2.22-4-2.89-3.67-.67.33-.75 3.28-.75 3.28l-.33 14.16c6.71-.93 13.48-1.37 20.26-1.34Z" fill="#F06351"/>
      <path d="M32 16.22c-.05-.1 1 .68 1.41.92.41.24.61.42.61.59 0 .17-.26.34-.62.34s-.92-.12-1-.26c-.08-.14.6 0 .94 0h.29A8.08 8.08 0 0 1 32 16.22ZM39.5 16.33s-1 1.28-1.09 1.34c-.09.06-.17.34.19.29a8.1 8.1 0 0 0 1.22-.28c.11-.06.07-.2-.12-.18-.19.02-.68.05-1 .11l.85-1.27s.03-.12-.05-.01ZM36.36 22.44c.46-.2.85-.56 1.09-1 .28-.66 0-.91-.44-1-.6-.11-1.23.01-1.75.34-.39.37-.34.73 0 1 .34.26.7.49 1.1.66Z" fill="#000"/>
      <path d="M36 23.7c-.11.23-.27.43-.46.6-.28.23-.63.36-1 .38-.55.05-1.1-.1-1.54-.44a2 2 0 0 1-.53-.45 1 1 0 0 0-.36-.25s.75 4.11 2.57 4.77c1.82.66 2.16-.76 2.21-1.14a5.63 5.63 0 0 0-.82-3.24c0-.3-.02-.1-.07-.23Z" fill="#F06351"/>
      <path d="M34.3 24.84a3.5 3.5 0 0 1-2.35-1.43.15.15 0 0 1 0-.2.14.14 0 0 1 .2 0 3.22 3.22 0 0 0 2.11 1.31 2.11 2.11 0 0 0 1.64-1l.14-.19.1.22s.38.76 1 .8c.62.04 1.06-.42 1.63-1.29a.14.14 0 0 1 .24.16c-.67.98-1.3 1.45-1.89 1.41A1.55 1.55 0 0 1 36 23.9a2.26 2.26 0 0 1-1.7.94Z" fill="#000"/>
      <path d="M45.88 21.16a57.47 57.47 0 0 0-5.09 5.21 31.88 31.88 0 0 1-5.31 4.9c-.22-.53-1.63-1.52-1.63-1.52s-3.14-2.15-5.2-3.84a31.9 31.9 0 0 1-3.14-3l-2-.11a22.63 22.63 0 0 0 12 8.84c.86-.14 3.28-1.87 5.09-3.28a57.66 57.66 0 0 0 6-5.91c.5-.6.88-1.27 1.14-2a20.4 20.4 0 0 0-1.86.71Z" fill="#F06351"/>
    </g>
    <g id="head-mobile">
      <path d="M7.07 31.72v-2.26c6.68-.92 13.42-1.36 20.17-1.33 0 .6 0 1.21-.06 1.82a25.52 25.52 0 0 1 6-1.82 16.67 16.67 0 0 0-31.99 3.26l5.88.33ZM28.24 35.23c-1.16 1.28-1.39 1.2-1.39 3.45v9.18A16.64 16.64 0 0 0 34.32 34a17.3 17.3 0 0 0-.32-3.1 33.1 33.1 0 0 0-5.76 4.33ZM7.36 36.72s-3.79-1.44-5.19-1.83A8.54 8.54 0 0 0 1 34.61a16.65 16.65 0 0 0 8.68 14L7.36 36.72Z" fill="#FDC305"/>
      <path d="M27.29 28.12a89.8 89.8 0 0 0-1.4-16.47s-.14-1.29-.89-.24c-.59 1.25-1 2.58-1.2 3.94a70.35 70.35 0 0 0-12.77.34C10.24 13 8.85 11.75 8.18 12c-.67.25-.72 3.31-.72 3.31l-.33 14.1c6.68-.9 13.42-1.34 20.16-1.29Z" fill="#F06351"/>
      <path d="M13.41 25c0-.09 1 .68 1.41.92.41.24.61.42.61.59 0 .17-.27.34-.63.34s-.91-.12-1-.27h1.23A8.34 8.34 0 0 1 13.41 25ZM20.89 25.11l-1.09 1.33c0 .06-.17.35.18.3.41-.06.82-.16 1.22-.29.11 0 .07-.19-.11-.17-.18.02-.69.05-1 .11l.84-1.26s.07-.13-.04-.02ZM17.75 31.2c.46-.2.85-.56 1.09-1 .28-.65 0-.91-.44-1-.6-.11-1.22.01-1.74.34-.39.36-.34.72-.05 1 .35.27.73.49 1.14.66Z" fill="#000"/>
      <path d="M17.35 32.45c-.11.23-.27.43-.46.6-.28.23-.63.36-1 .38a2.15 2.15 0 0 1-1.47-.43 2.3 2.3 0 0 1-.53-.44c-.1-.11-.22-.2-.36-.26 0 0 .75 4.1 2.57 4.75 1.82.65 2.14-.75 2.2-1.13a5.61 5.61 0 0 0-.82-3.23c-.02-.31-.03-.11-.13-.24Z" fill="#F06351"/>
      <path d="M15.71 33.59a3.44 3.44 0 0 1-2.36-1.47.14.14 0 0 1 .03-.15.14.14 0 0 1 .2 0c.5.7 1.26 1.16 2.11 1.3a2.1 2.1 0 0 0 1.63-1l.14-.19.1.21s.37.76 1 .8c.63.04 1.05-.41 1.61-1.28a.14.14 0 0 1 .2 0 .15.15 0 0 1 .05.2c-.64 1-1.27 1.44-1.88 1.4a1.55 1.55 0 0 1-1.12-.76 2.26 2.26 0 0 1-1.71.94Z" fill="#000"/>
      <path d="M27.24 29.92a58.63 58.63 0 0 0-5.07 5.19A31.63 31.63 0 0 1 16.88 40c-.22-.53-1.62-1.51-1.62-1.51s-3.13-2.14-5.18-3.82a34.14 34.14 0 0 1-3.13-3l-2-.11c2.89 4.2 7.12 7.3 12 8.8.86-.14 3.27-1.86 5.07-3.26a58.13 58.13 0 0 0 5.94-5.89c.5-.59.89-1.27 1.14-2-1.1.39-1.86.71-1.86.71Z" fill="#F06351"/>
  </g>
    <g id="big">
      <path d="m56.46 21.67 1 1.29a28 28 0 0 1 1.83 3 6.24 6.24 0 0 1-.86 1.78c-.44.43-1.35.72-1.5-.58-.15-1.3-.21-2.16-.21-2.16s-1.93-3.43-2.65-3.47c-.72-.04-5.83 3.47-7.18 5-1.17 1.29-1.4 1.2-1.4 3.47 0 1.5.17 6.65.13 11.23 1.81.2 4.47.7 5.27 1.88 0 0-.29-7.18 7.81-3.42 0 0 .28-9.79 11.46-7.28a43.72 43.72 0 0 0-13.7-10.74Z" fill="#F06351"/>
      <path d="M45.35 47.12c.13-1.07.2-2.49.24-4.06l-8.15 2.17a64 64 0 0 1-7.8 1.77l1.11 5c0 .11 0 .22.07.33 1.51.98 3.1 1.83 4.76 2.55a42.42 42.42 0 0 0 6.88-4.13v.06a15.22 15.22 0 0 0 2.89-3.69Z" fill="#E55645"/>
      <path d="M36.26 38.3a3.75 3.75 0 1 0 0-7.5 3.75 3.75 0 0 0 0 7.5Z" fill="#FDC305"/>
      <path d="m41.23 31.5-3.13 1.31 1.15-5.63-7.5 9.76 3.13-1.31-1.15 5.64 7.5-9.77Zm-7.39 3.83L38 29.92l-.81 4 2-.82L35 38.52l.81-4-1.97.81ZM32.44 33.86a1.12 1.12 0 1 0 0-2.24 1.12 1.12 0 0 0 0 2.24ZM38.96 37.92a.79.79 0 1 0 0-1.58.79.79 0 0 0 0 1.58ZM39.92 35.75a.35.35 0 1 0 0-.7.35.35 0 0 0 0 .7Z" fill="#111"/>
      <path d="M25.93 28s-3.81-1.44-5.21-1.83a3.76 3.76 0 0 0-4 .63 5.07 5.07 0 0 0-1.73 3.85c.21.46.37.95.48 1.45.05.48-1.2.43-2 .43s-.92-1.44-.29-3.13c.5-1.3 1.1-2.55 1.82-3.74-5.45 2.84-15 9.4-15 9.4 2.73-.16 5.47-.08 8.19.24 5.25.53 5 4.67 5 4.67 1.85-.5 3.73-.88 5.63-1.11 2.12-.14 2.27 2.12 2.27 2.12l.53 3.86c.8-.87 1.7-1.66 2.65-2.36a6.06 6.06 0 0 1 4.38-1.3L25.93 28Z" fill="#F06351"/>
    </g>
    <path id="squirt" d="m65.22 3.5-8.46 9.44-1.22-1.99L63.69 0l1.53 3.5ZM62.65 17.26l5.54-4.11-.78-3.74-5.4 4.81.64 3.04ZM59.92 49.37l6.13 3.18 3.01-2.34-6.69-2.75-2.45 1.91ZM1.95 5.97l3.07-3.36 9.29 9-1.22 2.28L1.95 5.97ZM7.38 16.28l-4.7-3.13-2.4 3.87 5.15 2.4 1.95-3.14ZM13.91 52.55 9.36 55.9l2.8 3.58 4.02-4.02-2.27-2.91Z" fill="#FDC305"/>
    <g id="logo">
      <path d="M85.66 42a8.3 8.3 0 0 1-1.4-5.19v-7.5a8.42 8.42 0 0 1 1.38-5.24c.93-1.2 2.51-1.79 4.75-1.78 2.24 0 3.76.53 4.55 1.57a6.72 6.72 0 0 1 1.33 4.49v1.76h-4.14V28.2c0-.5-.05-1-.13-1.5-.05-.36-.22-.7-.47-.95a1.56 1.56 0 0 0-1.15-.37 1.46 1.46 0 0 0-1.5.75c-.26.7-.38 1.45-.34 2.2v9.52c-.05.75.09 1.5.39 2.2a1.48 1.48 0 0 0 1.45.73 1.35 1.35 0 0 0 1.4-.74c.24-.7.35-1.45.31-2.19v-2h4.14v1.73A7.25 7.25 0 0 1 95 42.19c-.88 1.1-2.4 1.64-4.56 1.64-2.16 0-3.85-.6-4.78-1.83ZM101.91 22.58h4.74l4 21h-3.94l-.71-4.64h-3.32l-.8 4.61h-4l4.03-20.97Zm3.65 13.72-1.26-8.44-1.25 8.44h2.51ZM113.72 25.74h-3.24v-3.16h10.72v3.16H118v17.81h-4.29l.01-17.81Z" fill="#111"/>
      <path d="M129.61 22.58h8.13v2.18h-5.2v6.93h4.22v2.07h-4.22v7.69h5.25v2.1h-8.18V22.58ZM140.15 22.58h2l6 13.93V22.58h2.44v21h-1.87l-6-14.32v14.29h-2.48l-.09-20.97ZM153.82 22.58h8.12v2.18h-5.2v6.93H161v2.07h-4.22v7.69H162v2.1h-8.18V22.58ZM164.35 22.58h4.22a7 7 0 0 1 4.67 1.31c1 .87 1.49 2.29 1.49 4.26 0 2.67-.86 4.3-2.59 4.89l3 10.51h-2.84l-2.75-9.84h-2.27v9.84h-2.93V22.58Zm4 9c.96.1 1.93-.18 2.7-.76a3.57 3.57 0 0 0 .82-2.71 5.85 5.85 0 0 0-.29-2 1.89 1.89 0 0 0-1-1.08 4.76 4.76 0 0 0-2.05-.35h-1.29v6.94l1.11-.04ZM178.67 42a9.25 9.25 0 0 1-1.27-5.35v-7c-.03-1.35.13-2.7.5-4 .29-.98.9-1.83 1.74-2.41a5.9 5.9 0 0 1 3.36-.84 5.26 5.26 0 0 1 4.18 1.48 7 7 0 0 1 1.28 4.63v.78h-2.75v-.65a11.5 11.5 0 0 0-.18-2.32 2 2 0 0 0-.76-1.23 3 3 0 0 0-1.72-.41c-.65-.06-1.3.14-1.81.56-.42.4-.69.91-.77 1.48-.13.82-.18 1.66-.17 2.49V37a7.52 7.52 0 0 0 .59 3.46 2.83 2.83 0 0 0 4.47-.09c.48-1.15.7-2.4.61-3.65v-1.48h-2.66v-2.07h5.3v10.38h-1.81l-.29-2.41a3.69 3.69 0 0 1-3.73 2.67 4.66 4.66 0 0 1-4.11-1.81ZM194.69 36.15l-4.53-13.57h2.72l3.21 10.12 3.16-10.12H202l-4.5 13.57v7.4h-2.8l-.01-7.4Z" fill="#444"/>
  </g>
  <path id="logo-mobile" d="M92.26 40.54a6.87 6.87 0 0 1-1.26-4.3v-6.4c-.1-1.54.3-3.08 1.19-4.38.86-1 2.2-1.46 4.18-1.46 1.98 0 3.24.46 4.03 1.3a5.42 5.42 0 0 1 1.19 3.78v1.54h-3.87v-1.77a3.7 3.7 0 0 0-.24-1.54 1.16 1.16 0 0 0-1.1-.62c-.56 0-.95.16-1.11.54a4.85 4.85 0 0 0-.24 1.7v8.22c-.04.56.07 1.12.32 1.62.15.38.55.54 1.1.54.56 0 .87-.16 1.03-.54.18-.52.26-1.07.24-1.62v-1.84h3.87v1.54a5.78 5.78 0 0 1-1.19 3.84c-.79.93-2.13 1.39-4.03 1.39-1.9-.08-3.32-.54-4.1-1.54ZM106.25 24.23h4.5l3.33 17.54h-3.64l-.63-3.7h-2.6l-.64 3.7h-3.72l3.4-17.54Zm3.24 11.54-.94-6.85-.95 6.85h1.9ZM116.84 27.15h-2.68v-2.92h9.4v2.85h-2.69v14.69h-4.03V27.15ZM130.75 24.23h6.96v1.85h-4.5v5.77h3.63v1.77h-3.64v6.46h4.5v1.77h-7.03V24.23h.08ZM139.76 24.23h1.74l5.14 11.62V24.23h2.05v17.54h-1.58l-5.22-12v12h-2.13V24.23ZM151.06 24.23h6.96v1.85h-4.5v5.77h3.63v1.77h-3.64v6.46h4.5v1.77h-6.95V24.23ZM160.07 24.23h3.64c1.43-.1 2.85.28 4.03 1.08.87.69 1.26 1.92 1.26 3.54 0 2.23-.7 3.61-2.21 4.07l2.53 8.77h-2.45l-2.37-8.23h-1.98v8.23H160V24.23h.08Zm3.48 7.54c.81.06 1.63-.15 2.3-.62.47-.38.7-1.15.7-2.3a4.84 4.84 0 0 0-.24-1.7c-.17-.39-.48-.71-.86-.92a3.69 3.69 0 0 0-1.74-.3h-1.1v5.76h.94v.08ZM172.16 40.46a7.6 7.6 0 0 1-1.1-4.46v-5.85c-.02-1.11.11-2.22.4-3.3.26-.81.78-1.51 1.5-2 .88-.51 1.9-.75 2.92-.7 1.66 0 2.84.39 3.55 1.23a5.77 5.77 0 0 1 1.11 3.85v.62h-2.37v-.54c0-.65-.05-1.29-.16-1.93-.06-.4-.3-.76-.63-1a2.5 2.5 0 0 0-1.5-.38 2.42 2.42 0 0 0-1.58.46 1.73 1.73 0 0 0-.64 1.23c-.1.69-.15 1.38-.15 2.08v6.54c-.06 1 .1 2 .47 2.92.32.62.95.85 1.9.85.37.04.75-.02 1.09-.19.34-.16.62-.42.8-.74.42-.97.61-2.02.56-3.07v-1.23h-2.3v-1.77h4.59v8.69h-1.58l-.24-2c-.2.67-.64 1.25-1.22 1.66-.6.4-1.3.6-2.02.57a4.05 4.05 0 0 1-3.4-1.54ZM185.68 35.62 181.8 24.3h2.38l2.76 8.46 2.69-8.46H192l-3.87 11.3v6.16h-2.37v-6.15h-.08Z" fill="#111"/>

  </svg>
</svg>
