<svg fill="none" xmlns="http://www.w3.org/2000/svg"><style>:root svg:not(:target){display:none}</style><svg id="mobile" viewBox="0 0 210 60"><use href="#head-mobile"/><use href="#logo-mobile"/></svg><svg id="tablet" viewBox="0 0 210 60"><use href="#sun-big"/><use href="#head"/><use href="#big"/><use href="#logo"/></svg><svg id="desktop" viewBox="0 0 210 60"><use href="#sun-big"/><use href="#head"/><use href="#big"/><use href="#squirt"/><use href="#logo"/></svg><svg id="footer-logo" viewBox="0 0 129 24"><path d="M2.1 22.05a9.5 9.5 0 0 1-1.6-5.74V7.79A9.63 9.63 0 0 1 2 1.95C3.1.62 4.8 0 7.31 0c2.5 0 4.1.62 5.1 1.74a7.49 7.49 0 0 1 1.51 5.03v2.05h-4.9V6.46c.03-.7-.07-1.4-.3-2.05a1.46 1.46 0 0 0-.59-.63 1.41 1.41 0 0 0-.82-.19c-.7 0-1.2.2-1.4.72-.23.73-.33 1.49-.3 2.25v10.98c-.05.74.08 1.48.4 2.15.2.52.7.72 1.4.72s1.1-.2 1.3-.72c.23-.7.33-1.42.3-2.15v-2.46h4.91v2.05a7.98 7.98 0 0 1-1.5 5.13c-1 1.23-2.7 1.84-5.1 1.84-2.41-.1-4.22-.72-5.22-2.05ZM19.83.3h5.7l4.22 23.4h-4.61l-.8-4.93h-3.3l-.8 4.92h-4.72L19.83.31Zm4.1 15.4-1.2-9.14-1.2 9.13h2.4Zm9.32-11.5h-3.4V.3h11.91v3.8h-3.4v19.6h-5.1V4.2ZM50.88.3h8.81v2.47H54v7.7h4.6v2.35H54v8.62h5.7v2.35h-8.91V.31h.1ZM62.3.3h2.2l6.51 15.5V.3h2.6v23.4h-2l-6.6-16v16H62.3V.3Zm14.32 0h8.81v2.47h-5.7v7.7h4.6v2.35h-4.6v8.62h5.7v2.35h-8.81V.31Zm11.42 0h4.6a7.87 7.87 0 0 1 5.11 1.44c1.1.93 1.6 2.57 1.6 4.72 0 2.98-.9 4.82-2.8 5.44l3.2 11.69h-3.1l-3-10.97h-2.5v10.97h-3.21V.31h.1Zm4.4 10.06a4.3 4.3 0 0 0 2.9-.82c.6-.51.91-1.54.91-3.08a6.77 6.77 0 0 0-.3-2.25 2.58 2.58 0 0 0-1.1-1.24 4.47 4.47 0 0 0-2.2-.4h-1.4v7.69h1.2v.1Zm10.92 11.59a10.57 10.57 0 0 1-1.4-5.95V8.2c-.03-1.48.14-2.96.5-4.4a5.2 5.2 0 0 1 1.9-2.67c1.12-.68 2.41-1 3.7-.92 2.11 0 3.61.5 4.52 1.64a7.98 7.98 0 0 1 1.4 5.12v.82h-3v-.71c0-.86-.07-1.72-.2-2.57a2.06 2.06 0 0 0-.8-1.33 3.04 3.04 0 0 0-1.91-.51 2.96 2.96 0 0 0-2 .61 2.3 2.3 0 0 0-.8 1.64c-.14.92-.2 1.85-.2 2.77v8.72a9.53 9.53 0 0 0 .6 3.9c.4.82 1.2 1.13 2.4 1.13a2.37 2.37 0 0 0 2.4-1.23c.53-1.3.77-2.7.7-4.1v-1.65h-2.9V12.1h5.8v11.6h-2l-.3-2.67c-.26.89-.8 1.67-1.55 2.2-.74.55-1.64.81-2.55.77a4.9 4.9 0 0 1-4.3-2.05Zm17.13-6.46L115.58.4h3l3.51 11.28L125.49.4h3.01l-4.9 15.08v8.2h-3.01v-8.2h-.1Z" fill="currentColor"/></svg><svg id="1" viewBox="0 0 210 60"><path id="sun-big" d="M59.88 24a25.61 25.61 0 1 0-27.37 35.2c-.58-2.09-1.17-4.4-1.69-6.85 1.51.98 3.1 1.83 4.76 2.55 0 0 .12 2.16.28 4.57 1.79.03 3.57-.13 5.33-.47-.05-.25-.05-.5 0-.76.29-1.87 1.09-5.24 1.25-7.41a15.22 15.22 0 0 0 2.9-3.71l-.06.44c-.55 4.26-1.7 8.81-2.4 10.07-.23.42-.5.8-.83 1.15A25.64 25.64 0 0 0 59.88 24Zm-1.47 3.79c-.44.43-1.35.72-1.5-.58-.15-1.3-.19-2.21-.19-2.21s-1.93-3.43-2.65-3.47c-.72-.04-5.83 3.47-7.18 5-1.17 1.29-1.4 1.2-1.4 3.47 0 1.71.22 8.17.1 13.11l-8.15 2.17a64 64 0 0 1-7.8 1.72l-1-5.83h-.14L25.93 28s-3.81-1.44-5.21-1.83a3.76 3.76 0 0 0-4 .63 5.07 5.07 0 0 0-1.73 3.85c.21.46.37.95.48 1.45.05.48-1.2.43-2 .43s-.92-1.44-.29-3.13c.5-1.3 1.1-2.55 1.82-3.74a11.87 11.87 0 0 1 2.07-2.89s.14-.34 1.25-.24c1.11.1 7.28.43 7.28.43l.05-2.27c6.7-.93 13.47-1.37 20.24-1.34v1.83a22.52 22.52 0 0 1 8.14-2 .9.9 0 0 1 .77.39c.34.43 2.41 3 2.65 3.37a28 28 0 0 1 1.83 3 6.24 6.24 0 0 1-.87 1.84v.01Z" fill="#FDC305"/><path id="sun-small" d="M26.01 23.19v-2.25c6.62-.92 13.3-1.36 19.98-1.33 0 .6 0 1.2-.06 1.81 1.9-.84 3.9-1.45 5.94-1.8a16.57 16.57 0 0 0-6.77-8.17 16.44 16.44 0 0 0-19.92 2.04 16.62 16.62 0 0 0-5 9.37l5.83.33Zm20.97 3.49c-1.15 1.27-1.38 1.2-1.38 3.43v9.14a16.53 16.53 0 0 0 7.08-16.88 32.8 32.8 0 0 0-5.7 4.31ZM26.3 28.16s-3.75-1.43-5.14-1.82a8.42 8.42 0 0 0-1.16-.28A16.64 16.64 0 0 0 28.6 40l-2.3-11.84Z" fill="#FDC305"/><g id="head"><path d="M45.93 19.35a90.44 90.44 0 0 0-1.4-16.53s-.15-1.3-.87-.24c-.6 1.27-1 2.62-1.2 4a70.88 70.88 0 0 0-12.82.34c-.82-2.75-2.22-4-2.89-3.67-.67.33-.75 3.28-.75 3.28l-.33 14.16c6.71-.93 13.48-1.37 20.26-1.34Z" fill="#F06351"/><path d="M32 16.22c-.05-.1 1 .68 1.41.92.41.24.61.42.61.59 0 .17-.26.34-.62.34s-.92-.12-1-.26c-.08-.14.6 0 .94 0h.29A8.08 8.08 0 0 1 32 16.22Zm7.5.11s-1 1.28-1.09 1.34c-.09.06-.17.34.19.29a8.1 8.1 0 0 0 1.22-.28c.11-.06.07-.2-.12-.18-.19.02-.68.05-1 .11l.85-1.27s.03-.12-.05-.01Zm-3.14 6.11c.46-.2.85-.56 1.09-1 .28-.66 0-.91-.44-1-.6-.11-1.23.01-1.75.34-.39.37-.34.73 0 1 .34.26.7.49 1.1.66Z" fill="#000"/><path d="M36 23.7c-.11.23-.27.43-.46.6-.28.23-.63.36-1 .38-.55.05-1.1-.1-1.54-.44a2 2 0 0 1-.53-.45 1 1 0 0 0-.36-.25s.75 4.11 2.57 4.77c1.82.66 2.16-.76 2.21-1.14a5.63 5.63 0 0 0-.82-3.24c0-.3-.02-.1-.07-.23Z" fill="#F06351"/><path d="M34.3 24.84a3.5 3.5 0 0 1-2.35-1.43.15.15 0 0 1 0-.2.14.14 0 0 1 .2 0 3.22 3.22 0 0 0 2.11 1.31 2.11 2.11 0 0 0 1.64-1l.14-.19.1.22s.38.76 1 .8c.62.04 1.06-.42 1.63-1.29a.14.14 0 0 1 .24.16c-.67.98-1.3 1.45-1.89 1.41A1.55 1.55 0 0 1 36 23.9a2.26 2.26 0 0 1-1.7.94Z" fill="#000"/><path d="M45.88 21.16a57.47 57.47 0 0 0-5.09 5.21 31.88 31.88 0 0 1-5.31 4.9c-.22-.53-1.63-1.52-1.63-1.52s-3.14-2.15-5.2-3.84a31.9 31.9 0 0 1-3.14-3l-2-.11a22.63 22.63 0 0 0 12 8.84c.86-.14 3.28-1.87 5.09-3.28a57.66 57.66 0 0 0 6-5.91c.5-.6.88-1.27 1.14-2a20.4 20.4 0 0 0-1.86.71Z" fill="#F06351"/></g><g id="head-mobile"><path d="M7.07 31.72v-2.26c6.68-.92 13.42-1.36 20.17-1.33 0 .6 0 1.21-.06 1.82a25.52 25.52 0 0 1 6-1.82 16.67 16.67 0 0 0-31.99 3.26l5.88.33Zm21.17 3.51c-1.16 1.28-1.39 1.2-1.39 3.45v9.18A16.64 16.64 0 0 0 34.32 34a17.3 17.3 0 0 0-.32-3.1 33.1 33.1 0 0 0-5.76 4.33ZM7.36 36.72s-3.79-1.44-5.19-1.83A8.54 8.54 0 0 0 1 34.61a16.65 16.65 0 0 0 8.68 14L7.36 36.72Z" fill="#FDC305"/><path d="M27.29 28.12a89.8 89.8 0 0 0-1.4-16.47s-.14-1.29-.89-.24c-.59 1.25-1 2.58-1.2 3.94a70.35 70.35 0 0 0-12.77.34C10.24 13 8.85 11.75 8.18 12c-.67.25-.72 3.31-.72 3.31l-.33 14.1c6.68-.9 13.42-1.34 20.16-1.29Z" fill="#F06351"/><path d="M13.41 25c0-.09 1 .68 1.41.92.41.24.61.42.61.59 0 .17-.27.34-.63.34s-.91-.12-1-.27h1.23A8.34 8.34 0 0 1 13.41 25Zm7.48.11-1.09 1.33c0 .06-.17.35.18.3.41-.06.82-.16 1.22-.29.11 0 .07-.19-.11-.17-.18.02-.69.05-1 .11l.84-1.26s.07-.13-.04-.02Zm-3.14 6.09c.46-.2.85-.56 1.09-1 .28-.65 0-.91-.44-1-.6-.11-1.22.01-1.74.34-.39.36-.34.72-.05 1 .35.27.73.49 1.14.66Z" fill="#000"/><path d="M17.35 32.45c-.11.23-.27.43-.46.6-.28.23-.63.36-1 .38a2.15 2.15 0 0 1-1.47-.43 2.3 2.3 0 0 1-.53-.44c-.1-.11-.22-.2-.36-.26 0 0 .75 4.1 2.57 4.75 1.82.65 2.14-.75 2.2-1.13a5.61 5.61 0 0 0-.82-3.23c-.02-.31-.03-.11-.13-.24Z" fill="#F06351"/><path d="M15.71 33.59a3.44 3.44 0 0 1-2.36-1.47.14.14 0 0 1 .03-.15.14.14 0 0 1 .2 0c.5.7 1.26 1.16 2.11 1.3a2.1 2.1 0 0 0 1.63-1l.14-.19.1.21s.37.76 1 .8c.63.04 1.05-.41 1.61-1.28a.14.14 0 0 1 .2 0 .15.15 0 0 1 .05.2c-.64 1-1.27 1.44-1.88 1.4a1.55 1.55 0 0 1-1.12-.76 2.26 2.26 0 0 1-1.71.94Z" fill="#000"/><path d="M27.24 29.92a58.63 58.63 0 0 0-5.07 5.19A31.63 31.63 0 0 1 16.88 40c-.22-.53-1.62-1.51-1.62-1.51s-3.13-2.14-5.18-3.82a34.14 34.14 0 0 1-3.13-3l-2-.11c2.89 4.2 7.12 7.3 12 8.8.86-.14 3.27-1.86 5.07-3.26a58.13 58.13 0 0 0 5.94-5.89c.5-.59.89-1.27 1.14-2-1.1.39-1.86.71-1.86.71Z" fill="#F06351"/></g><g id="big"><path d="m56.46 21.67 1 1.29a28 28 0 0 1 1.83 3 6.24 6.24 0 0 1-.86 1.78c-.44.43-1.35.72-1.5-.58-.15-1.3-.21-2.16-.21-2.16s-1.93-3.43-2.65-3.47c-.72-.04-5.83 3.47-7.18 5-1.17 1.29-1.4 1.2-1.4 3.47 0 1.5.17 6.65.13 11.23 1.81.2 4.47.7 5.27 1.88 0 0-.29-7.18 7.81-3.42 0 0 .28-9.79 11.46-7.28a43.72 43.72 0 0 0-13.7-10.74Z" fill="#F06351"/><path d="M45.35 47.12c.13-1.07.2-2.49.24-4.06l-8.15 2.17a64 64 0 0 1-7.8 1.77l1.11 5c0 .11 0 .22.07.33 1.51.98 3.1 1.83 4.76 2.55a42.42 42.42 0 0 0 6.88-4.13v.06a15.22 15.22 0 0 0 2.89-3.69Z" fill="#E55645"/><path d="M36.26 38.3a3.75 3.75 0 1 0 0-7.5 3.75 3.75 0 0 0 0 7.5Z" fill="#FDC305"/><path d="m41.23 31.5-3.13 1.31 1.15-5.63-7.5 9.76 3.13-1.31-1.15 5.64 7.5-9.77Zm-7.39 3.83L38 29.92l-.81 4 2-.82L35 38.52l.81-4-1.97.81Zm-1.4-1.47a1.12 1.12 0 1 0 0-2.24 1.12 1.12 0 0 0 0 2.24Zm6.52 4.06a.79.79 0 1 0 0-1.58.79.79 0 0 0 0 1.58Zm.96-2.17a.35.35 0 1 0 0-.7.35.35 0 0 0 0 .7Z" fill="#111"/><path d="M25.93 28s-3.81-1.44-5.21-1.83a3.76 3.76 0 0 0-4 .63 5.07 5.07 0 0 0-1.73 3.85c.21.46.37.95.48 1.45.05.48-1.2.43-2 .43s-.92-1.44-.29-3.13c.5-1.3 1.1-2.55 1.82-3.74-5.45 2.84-15 9.4-15 9.4 2.73-.16 5.47-.08 8.19.24 5.25.53 5 4.67 5 4.67 1.85-.5 3.73-.88 5.63-1.11 2.12-.14 2.27 2.12 2.27 2.12l.53 3.86c.8-.87 1.7-1.66 2.65-2.36a6.06 6.06 0 0 1 4.38-1.3L25.93 28Z" fill="#F06351"/></g><path id="squirt" d="m65.22 3.5-8.46 9.44-1.22-1.99L63.69 0l1.53 3.5Zm-2.57 13.76 5.54-4.11-.78-3.74-5.4 4.81.64 3.04Zm-2.73 32.11 6.13 3.18 3.01-2.34-6.69-2.75-2.45 1.91ZM1.95 5.97l3.07-3.36 9.29 9-1.22 2.28L1.95 5.97Zm5.43 10.31-4.7-3.13-2.4 3.87 5.15 2.4 1.95-3.14Zm6.53 36.27L9.36 55.9l2.8 3.58 4.02-4.02-2.27-2.91Z" fill="#FDC305"/><g id="logo"><path d="M85.66 42a8.3 8.3 0 0 1-1.4-5.19v-7.5a8.42 8.42 0 0 1 1.38-5.24c.93-1.2 2.51-1.79 4.75-1.78 2.24 0 3.76.53 4.55 1.57a6.72 6.72 0 0 1 1.33 4.49v1.76h-4.14V28.2c0-.5-.05-1-.13-1.5-.05-.36-.22-.7-.47-.95a1.56 1.56 0 0 0-1.15-.37 1.46 1.46 0 0 0-1.5.75c-.26.7-.38 1.45-.34 2.2v9.52c-.05.75.09 1.5.39 2.2a1.48 1.48 0 0 0 1.45.73 1.35 1.35 0 0 0 1.4-.74c.24-.7.35-1.45.31-2.19v-2h4.14v1.73A7.25 7.25 0 0 1 95 42.19c-.88 1.1-2.4 1.64-4.56 1.64-2.16 0-3.85-.6-4.78-1.83Zm16.25-19.42h4.74l4 21h-3.94l-.71-4.64h-3.32l-.8 4.61h-4l4.03-20.97Zm3.65 13.72-1.26-8.44-1.25 8.44h2.51Zm8.16-10.56h-3.24v-3.16h10.72v3.16H118v17.81h-4.29l.01-17.81Z" fill="#111"/><path d="M129.61 22.58h8.13v2.18h-5.2v6.93h4.22v2.07h-4.22v7.69h5.25v2.1h-8.18V22.58Zm10.54 0h2l6 13.93V22.58h2.44v21h-1.87l-6-14.32v14.29h-2.48l-.09-20.97Zm13.67 0h8.12v2.18h-5.2v6.93H161v2.07h-4.22v7.69H162v2.1h-8.18V22.58Zm10.53 0h4.22a7 7 0 0 1 4.67 1.31c1 .87 1.49 2.29 1.49 4.26 0 2.67-.86 4.3-2.59 4.89l3 10.51h-2.84l-2.75-9.84h-2.27v9.84h-2.93V22.58Zm4 9c.96.1 1.93-.18 2.7-.76a3.57 3.57 0 0 0 .82-2.71 5.85 5.85 0 0 0-.29-2 1.89 1.89 0 0 0-1-1.08 4.76 4.76 0 0 0-2.05-.35h-1.29v6.94l1.11-.04ZM178.67 42a9.25 9.25 0 0 1-1.27-5.35v-7c-.03-1.35.13-2.7.5-4 .29-.98.9-1.83 1.74-2.41a5.9 5.9 0 0 1 3.36-.84 5.26 5.26 0 0 1 4.18 1.48 7 7 0 0 1 1.28 4.63v.78h-2.75v-.65a11.5 11.5 0 0 0-.18-2.32 2 2 0 0 0-.76-1.23 3 3 0 0 0-1.72-.41c-.65-.06-1.3.14-1.81.56-.42.4-.69.91-.77 1.48-.13.82-.18 1.66-.17 2.49V37a7.52 7.52 0 0 0 .59 3.46 2.83 2.83 0 0 0 4.47-.09c.48-1.15.7-2.4.61-3.65v-1.48h-2.66v-2.07h5.3v10.38h-1.81l-.29-2.41a3.69 3.69 0 0 1-3.73 2.67 4.66 4.66 0 0 1-4.11-1.81Zm16.02-5.85-4.53-13.57h2.72l3.21 10.12 3.16-10.12H202l-4.5 13.57v7.4h-2.8l-.01-7.4Z" fill="#444"/></g><path id="logo-mobile" d="M92.26 40.54a6.87 6.87 0 0 1-1.26-4.3v-6.4c-.1-1.54.3-3.08 1.19-4.38.86-1 2.2-1.46 4.18-1.46 1.98 0 3.24.46 4.03 1.3a5.42 5.42 0 0 1 1.19 3.78v1.54h-3.87v-1.77a3.7 3.7 0 0 0-.24-1.54 1.16 1.16 0 0 0-1.1-.62c-.56 0-.95.16-1.11.54a4.85 4.85 0 0 0-.24 1.7v8.22c-.04.56.07 1.12.32 1.62.15.38.55.54 1.1.54.56 0 .87-.16 1.03-.54.18-.52.26-1.07.24-1.62v-1.84h3.87v1.54a5.78 5.78 0 0 1-1.19 3.84c-.79.93-2.13 1.39-4.03 1.39-1.9-.08-3.32-.54-4.1-1.54Zm13.99-16.31h4.5l3.33 17.54h-3.64l-.63-3.7h-2.6l-.64 3.7h-3.72l3.4-17.54Zm3.24 11.54-.94-6.85-.95 6.85h1.9Zm7.35-8.62h-2.68v-2.92h9.4v2.85h-2.69v14.69h-4.03V27.15Zm13.91-2.92h6.96v1.85h-4.5v5.77h3.63v1.77h-3.64v6.46h4.5v1.77h-7.03V24.23h.08Zm9.01 0h1.74l5.14 11.62V24.23h2.05v17.54h-1.58l-5.22-12v12h-2.13V24.23Zm11.3 0h6.96v1.85h-4.5v5.77h3.63v1.77h-3.64v6.46h4.5v1.77h-6.95V24.23Zm9.01 0h3.64c1.43-.1 2.85.28 4.03 1.08.87.69 1.26 1.92 1.26 3.54 0 2.23-.7 3.61-2.21 4.07l2.53 8.77h-2.45l-2.37-8.23h-1.98v8.23H160V24.23h.08Zm3.48 7.54c.81.06 1.63-.15 2.3-.62.47-.38.7-1.15.7-2.3a4.84 4.84 0 0 0-.24-1.7c-.17-.39-.48-.71-.86-.92a3.69 3.69 0 0 0-1.74-.3h-1.1v5.76h.94v.08Zm8.61 8.69a7.6 7.6 0 0 1-1.1-4.46v-5.85c-.02-1.11.11-2.22.4-3.3.26-.81.78-1.51 1.5-2 .88-.51 1.9-.75 2.92-.7 1.66 0 2.84.39 3.55 1.23a5.77 5.77 0 0 1 1.11 3.85v.62h-2.37v-.54c0-.65-.05-1.29-.16-1.93-.06-.4-.3-.76-.63-1a2.5 2.5 0 0 0-1.5-.38 2.42 2.42 0 0 0-1.58.46 1.73 1.73 0 0 0-.64 1.23c-.1.69-.15 1.38-.15 2.08v6.54c-.06 1 .1 2 .47 2.92.32.62.95.85 1.9.85.37.04.75-.02 1.09-.19.34-.16.62-.42.8-.74.42-.97.61-2.02.56-3.07v-1.23h-2.3v-1.77h4.59v8.69h-1.58l-.24-2c-.2.67-.64 1.25-1.22 1.66-.6.4-1.3.6-2.02.57a4.05 4.05 0 0 1-3.4-1.54Zm13.52-4.84L181.8 24.3h2.38l2.76 8.46 2.69-8.46H192l-3.87 11.3v6.16h-2.37v-6.15h-.08Z" fill="#111"/></svg></svg>